<?xml version="1.0" encoding="utf-8"?>
<!-- Generator: Adobe Illustrator 24.0.0, SVG Export Plug-In . SVG Version: 6.00 Build 0)  -->
<svg version="1.1" id="Calque_1" xmlns="http://www.w3.org/2000/svg" xmlns:xlink="http://www.w3.org/1999/xlink" x="0px" y="0px"
	 viewBox="0 0 16 16" style="enable-background:new 0 0 16 16;" xml:space="preserve">
<style type="text/css">
	.st0{fill-rule:evenodd;clip-rule:evenodd;}
</style>
<path class="st0" d="M4.5,1C4.2,1,4,1.2,4,1.5l0,11.8l-3.1-3.1c-0.2-0.2-0.5-0.2-0.7,0c-0.2,0.2-0.2,0.5,0,0.7l0,0l4,4
	c0.2,0.2,0.5,0.2,0.7,0c0,0,0,0,0,0l4-4c0.2-0.2,0.2-0.5,0-0.7c-0.2-0.2-0.5-0.2-0.7,0L5,13.3L5,1.5C5,1.2,4.8,1,4.5,1z M11.5,15
	c-0.3,0-0.5-0.2-0.5-0.5l0-11.8L7.9,5.9C7.7,6,7.3,6,7.1,5.9S7,5.3,7.1,5.1l4-4c0.2-0.2,0.5-0.2,0.7,0c0,0,0,0,0,0l4,4
	c0.2,0.2,0.2,0.5,0,0.7c-0.2,0.2-0.5,0.2-0.7,0L12,2.7l0,11.8C12,14.8,11.8,15,11.5,15z"/>
</svg>
